<svg xmlns="http://www.w3.org/2000/svg" viewBox="0 0 128 128" width="128" height="128">
  <!-- Background circle -->
  <circle cx="64" cy="64" r="60" fill="#4f46e5" stroke="#7c3aed" stroke-width="4"/>

  <!-- Ninja mask/face -->
  <circle cx="64" cy="64" r="45" fill="#2d1b69"/>

  <!-- Eyes -->
  <circle cx="52" cy="55" r="6" fill="#ffffff"/>
  <circle cx="76" cy="55" r="6" fill="#ffffff"/>
  <circle cx="52" cy="55" r="3" fill="#000000"/>
  <circle cx="76" cy="55" r="3" fill="#000000"/>

  <!-- Mask opening -->
  <ellipse cx="64" cy="75" rx="12" ry="8" fill="#ffffff"/>

  <!-- Resume/document icon overlay -->
  <rect x="45" y="85" width="38" height="28" rx="2" fill="#ffffff" opacity="0.9"/>
  <line x1="50" y1="92" x2="78" y2="92" stroke="#4f46e5" stroke-width="2"/>
  <line x1="50" y1="98" x2="75" y2="98" stroke="#4f46e5" stroke-width="2"/>
  <line x1="50" y1="104" x2="78" y2="104" stroke="#4f46e5" stroke-width="2"/>

  <!-- Ninja star accent -->
  <g transform="translate(95,25) scale(0.3)">
    <polygon points="0,16 4,4 16,0 4,-4 0,-16 -4,-4 -16,0 -4,4" fill="#fbbf24"/>
  </g>
</svg>